<svg width="810" height="750" viewBox="0 0 810 750" fill="none" xmlns="http://www.w3.org/2000/svg">
<path d="M660.373 725.421C634.275 698.288 635.115 655.131 662.248 629.033C689.382 602.931 732.534 603.771 758.632 630.904C784.734 658.037 783.894 701.194 756.761 727.292C729.628 753.39 686.475 752.554 660.373 725.421Z" fill="#F46F17"/>
<path d="M737.411 527.401C721.415 510.771 721.926 484.32 738.561 468.32C755.191 452.324 781.642 452.835 797.642 469.47C813.638 486.1 813.127 512.551 796.492 528.551C779.862 544.546 753.411 544.031 737.411 527.401Z" fill="#EF381F"/>
<path d="M655.845 242.541C650.677 277.099 649.999 312.617 663.031 342.389C671.058 359.458 681.274 371.793 694.454 382.129C699.541 385.933 703.893 388.987 708.317 392.909C758.532 437.555 703.864 514.354 645.451 482.273C621.506 468.2 603.864 445.018 593.967 420.014C567.521 354.791 596.959 276.364 655.845 242.541Z" fill="#EF381F"/>
<path d="M589.749 407.955C589.734 407.917 589.73 407.888 589.715 407.855C589.725 407.883 589.739 407.922 589.749 407.955ZM589.558 407.311C589.558 407.301 589.553 407.292 589.548 407.282C589.553 407.296 589.553 407.296 589.558 407.311ZM655.148 247.432C655.329 246.072 655.525 244.712 655.725 243.357C655.725 243.352 655.73 243.352 655.73 243.352C655.534 244.693 655.348 246.039 655.162 247.385C655.157 247.399 655.153 247.413 655.148 247.432Z" fill="#171621"/>
<path d="M673.52 489.855C664.568 489.855 655.062 487.551 645.451 482.273C630.086 473.244 617.316 460.465 607.524 445.858C602.055 437.703 597.513 428.975 593.967 420.014C592.392 416.129 591.013 412.197 589.83 408.232C589.825 408.217 589.825 408.213 589.82 408.203C589.806 408.151 589.787 408.093 589.772 408.041C589.763 408.012 589.753 407.984 589.749 407.955C589.739 407.922 589.725 407.883 589.715 407.855C589.706 407.817 589.696 407.774 589.682 407.74C589.677 407.712 589.668 407.688 589.658 407.659C589.648 407.616 589.634 407.573 589.62 407.53C589.615 407.511 589.61 407.492 589.605 407.473C589.591 407.42 589.572 407.363 589.558 407.311C589.553 407.296 589.553 407.296 589.548 407.282C571.763 346.049 599.693 276.846 652.824 244.378C653.793 244.039 654.747 243.677 655.725 243.357C655.525 244.712 655.329 246.072 655.148 247.432C636.332 299.642 624.302 354.433 634.886 404.91C642.011 434.864 654.217 457.979 671.821 478.894C675.085 482.588 678.125 485.957 681.05 489.307C678.592 489.669 676.077 489.855 673.52 489.855Z" fill="#D23023"/>
<path d="M513.201 606.915C585.793 687.101 710.37 598.299 657.032 503.176C652.307 494.791 647.243 487.779 641.416 479.185L641.41 479.175C626.556 456.134 617.343 431.584 614.061 400.894L614.059 400.88C609.855 348.193 629.695 294.052 655.818 243.687C547.604 264.773 461.176 369.647 467.114 483.712V483.716C469.012 526.795 483.392 571.121 511.835 605.296L513.201 606.915Z" fill="#FCFCFC" stroke="#FCBAD6"/>
<path d="M52.4542 501.914C89.0023 492.881 125.956 515.185 134.989 551.733C144.027 588.281 121.723 625.235 85.1752 634.268C48.6271 643.306 11.6733 621.002 2.6401 584.454C-6.39792 547.906 15.9061 510.952 52.4542 501.914Z" fill="#F6CF11"/>
<path d="M185.424 667.643C207.823 662.103 230.475 675.774 236.016 698.174C241.551 720.578 227.884 743.23 205.48 748.77C183.076 754.306 160.428 740.634 154.888 718.235C149.348 695.831 163.02 673.178 185.424 667.643Z" fill="#37B770"/>
<path d="M472.904 739.432C445.56 717.676 415.139 699.333 382.843 695.73C364.046 694.146 348.256 696.833 332.714 703.074C326.878 705.58 322.054 707.818 316.442 709.693C252.67 730.856 213.497 645.11 270.483 610.566C294.648 596.861 323.538 593.177 350.146 597.104C419.854 606.815 473.056 671.522 472.904 739.432Z" fill="#37B770"/>
<path d="M472.254 738.926C471.195 738.086 470.121 737.251 469.053 736.421C469.038 736.406 469.029 736.392 469.014 736.382C470.102 737.222 471.181 738.067 472.259 738.921C472.259 738.921 472.259 738.926 472.254 738.926ZM269.92 610.909C269.925 610.909 269.925 610.909 269.93 610.905L269.92 610.909ZM270.059 610.824C270.068 610.819 270.078 610.814 270.092 610.804C270.083 610.814 270.068 610.819 270.059 610.824ZM270.483 610.566C288.64 600.268 309.46 595.63 329.98 595.625C309.46 595.63 288.636 600.273 270.483 610.566ZM359.084 598.669C359.079 598.665 359.084 598.669 359.079 598.669H359.084ZM358.893 598.627H358.883C358.888 598.627 358.888 598.627 358.893 598.627ZM358.516 598.55C358.511 598.55 358.492 598.545 358.482 598.545C358.497 598.545 358.506 598.55 358.516 598.55ZM358.134 598.474C358.115 598.469 358.101 598.464 358.081 598.459C358.101 598.464 358.12 598.469 358.134 598.474ZM357.743 598.393C357.724 598.388 357.704 598.388 357.685 598.383C357.704 598.383 357.724 598.388 357.743 598.393ZM357.552 598.354C357.533 598.35 357.499 598.345 357.48 598.34C357.504 598.345 357.528 598.35 357.552 598.354ZM357.161 598.278C357.137 598.273 357.103 598.269 357.079 598.264C357.108 598.269 357.132 598.273 357.161 598.278ZM356.965 598.24C356.936 598.235 356.908 598.23 356.884 598.226C356.912 598.23 356.936 598.235 356.965 598.24ZM356.373 598.125C356.344 598.121 356.306 598.116 356.278 598.111C356.311 598.116 356.34 598.121 356.373 598.125ZM356.173 598.092C356.139 598.082 356.115 598.078 356.082 598.073C356.111 598.078 356.139 598.082 356.173 598.092ZM355.581 597.982C355.548 597.973 355.505 597.968 355.471 597.958C355.509 597.968 355.543 597.973 355.581 597.982ZM355.185 597.906C355.147 597.901 355.109 597.896 355.07 597.887C355.104 597.896 355.147 597.901 355.185 597.906ZM354.784 597.839C354.746 597.83 354.703 597.825 354.665 597.815C354.708 597.825 354.741 597.83 354.784 597.839ZM354.584 597.801C354.545 597.796 354.502 597.787 354.464 597.782C354.507 597.791 354.541 597.796 354.584 597.801ZM354.178 597.734C354.145 597.725 354.102 597.72 354.068 597.715C354.107 597.72 354.14 597.725 354.178 597.734ZM353.376 597.596C353.338 597.591 353.295 597.586 353.262 597.577C353.3 597.586 353.338 597.591 353.376 597.596ZM352.976 597.534C352.937 597.524 352.894 597.519 352.856 597.515C352.89 597.519 352.937 597.524 352.976 597.534ZM352.57 597.467C352.532 597.462 352.494 597.453 352.451 597.448C352.489 597.453 352.532 597.462 352.57 597.467ZM352.169 597.405C352.126 597.4 352.088 597.391 352.045 597.386C352.088 597.391 352.131 597.4 352.169 597.405ZM351.969 597.371C351.93 597.367 351.887 597.362 351.849 597.357C351.883 597.362 351.93 597.367 351.969 597.371ZM350.351 597.133C350.279 597.123 350.213 597.114 350.146 597.104C350.213 597.114 350.284 597.123 350.351 597.133Z" fill="#171621"/>
<path d="M472.259 738.921C471.181 738.067 470.102 737.222 469.014 736.382C433.206 693.984 391.771 656.171 342.764 640.094C324.707 634.707 307.919 632.245 291.437 632.245C280.991 632.245 270.669 633.232 260.228 635.094C255.394 636.067 250.957 637.021 246.595 637.876C250.656 627.645 258.191 618.172 269.92 610.909L269.93 610.905C269.973 610.881 270.016 610.852 270.059 610.824C270.068 610.819 270.082 610.814 270.092 610.804C270.125 610.785 270.164 610.761 270.202 610.738C270.216 610.728 270.235 610.718 270.254 610.709C270.283 610.69 270.312 610.671 270.34 610.652C270.388 610.623 270.436 610.595 270.483 610.566C288.636 600.273 309.46 595.63 329.98 595.625C329.989 595.625 330.003 595.625 330.013 595.625C330.018 595.625 330.018 595.625 330.023 595.625C336.722 595.625 343.398 596.121 349.926 597.076C350.003 597.085 350.074 597.095 350.146 597.104C350.213 597.114 350.279 597.123 350.351 597.133C350.36 597.138 350.375 597.138 350.384 597.142C350.442 597.147 350.494 597.157 350.551 597.162C350.575 597.166 350.599 597.171 350.623 597.176C350.671 597.181 350.709 597.185 350.756 597.195C350.776 597.195 350.795 597.2 350.819 597.2C350.862 597.209 350.909 597.214 350.957 597.224C350.976 597.224 351 597.228 351.019 597.233C351.067 597.238 351.114 597.243 351.162 597.252C351.181 597.257 351.2 597.257 351.224 597.262C351.267 597.266 351.315 597.276 351.363 597.281C351.386 597.286 351.406 597.29 351.434 597.29C351.472 597.3 351.52 597.305 351.563 597.309C351.592 597.314 351.615 597.319 351.644 597.324C351.682 597.329 351.725 597.338 351.763 597.343C351.792 597.348 351.816 597.352 351.849 597.357C351.887 597.362 351.93 597.367 351.969 597.371C351.997 597.376 352.016 597.381 352.045 597.386C352.088 597.391 352.126 597.4 352.169 597.405C352.193 597.41 352.217 597.41 352.241 597.414C352.284 597.424 352.331 597.429 352.374 597.438C352.398 597.438 352.427 597.443 352.451 597.448C352.493 597.453 352.532 597.462 352.57 597.467C352.598 597.472 352.627 597.476 352.656 597.481C352.694 597.486 352.737 597.496 352.775 597.5C352.804 597.505 352.823 597.51 352.856 597.515C352.894 597.519 352.937 597.524 352.976 597.534C353.004 597.539 353.023 597.539 353.057 597.543C353.095 597.553 353.138 597.558 353.176 597.567C353.2 597.567 353.233 597.577 353.262 597.577C353.295 597.586 353.338 597.591 353.376 597.596C353.4 597.6 353.434 597.605 353.457 597.61C353.5 597.62 353.539 597.624 353.582 597.629C353.605 597.634 353.634 597.639 353.658 597.643C353.701 597.653 353.739 597.658 353.777 597.663C353.811 597.667 353.834 597.672 353.863 597.677C353.901 597.686 353.939 597.691 353.978 597.696C354.006 597.706 354.04 597.71 354.068 597.715C354.102 597.72 354.145 597.725 354.178 597.734C354.207 597.739 354.24 597.744 354.269 597.748C354.307 597.753 354.345 597.763 354.383 597.768C354.412 597.772 354.436 597.777 354.464 597.782C354.502 597.787 354.545 597.796 354.584 597.801C354.607 597.806 354.641 597.811 354.665 597.815C354.703 597.825 354.746 597.83 354.784 597.839C354.813 597.844 354.841 597.849 354.87 597.853C354.908 597.858 354.946 597.868 354.984 597.873C355.013 597.877 355.042 597.882 355.07 597.887C355.108 597.896 355.147 597.901 355.185 597.906C355.213 597.915 355.242 597.92 355.271 597.925C355.309 597.93 355.342 597.939 355.381 597.944C355.409 597.949 355.443 597.954 355.471 597.958C355.505 597.968 355.548 597.973 355.581 597.982C355.614 597.987 355.643 597.992 355.676 597.997C355.71 598.001 355.743 598.011 355.777 598.016C355.81 598.02 355.843 598.03 355.877 598.035C355.91 598.04 355.944 598.044 355.977 598.054C356.006 598.059 356.049 598.068 356.082 598.073C356.115 598.078 356.139 598.082 356.173 598.092C356.206 598.097 356.244 598.102 356.278 598.111C356.306 598.116 356.344 598.121 356.373 598.125C356.406 598.135 356.445 598.14 356.483 598.149C356.511 598.154 356.54 598.159 356.569 598.164C356.607 598.173 356.645 598.178 356.679 598.187C356.707 598.192 356.736 598.197 356.764 598.202C356.803 598.211 356.846 598.216 356.884 598.226C356.908 598.23 356.936 598.235 356.965 598.24C356.998 598.25 357.041 598.254 357.079 598.264C357.103 598.269 357.137 598.273 357.16 598.278C357.203 598.288 357.242 598.292 357.285 598.302C357.308 598.307 357.332 598.312 357.356 598.316C357.399 598.326 357.437 598.331 357.48 598.34C357.499 598.345 357.533 598.35 357.552 598.354C357.595 598.364 357.642 598.374 357.685 598.383C357.704 598.388 357.724 598.388 357.743 598.393C357.79 598.402 357.833 598.412 357.881 598.421C357.9 598.426 357.924 598.431 357.943 598.436C357.991 598.445 358.034 598.45 358.081 598.459C358.101 598.464 358.115 598.469 358.134 598.474C358.182 598.483 358.229 598.493 358.282 598.502C358.296 598.507 358.31 598.507 358.325 598.512C358.377 598.522 358.435 598.531 358.482 598.545C358.492 598.545 358.511 598.55 358.516 598.55C358.568 598.56 358.625 598.574 358.678 598.584C358.692 598.588 358.697 598.588 358.711 598.588C358.769 598.603 358.826 598.612 358.883 598.627H358.893C358.955 598.641 359.022 598.655 359.079 598.669C359.084 598.669 359.079 598.665 359.084 598.669C423.161 612.16 471.233 672.219 472.822 735.896C472.631 736.902 472.464 737.914 472.259 738.921Z" fill="#2C9263"/>
<path d="M472.059 739.976C441.409 691.86 404.345 647.305 356.454 624.529C328.305 612.055 302.517 607.77 275.212 609.115C264.876 609.864 256.239 610.747 246.59 610.642C136.932 609.263 122.248 456.108 228.576 433.222C273.156 424.971 319.691 434.701 358.635 454.958C460.935 507.125 508.617 635.308 472.059 739.976Z" fill="#FCBAD6"/>
<path d="M553.224 87.4441C542.779 123.615 504.985 144.469 468.819 134.018C432.648 123.567 411.794 85.7787 422.245 49.6075C432.695 13.4364 470.484 -7.4122 506.655 3.03354C542.826 13.484 563.675 51.2777 553.224 87.4441Z" fill="#5AA1DD"/>
<path d="M343.217 119.736C336.813 141.906 313.65 154.69 291.48 148.286C269.309 141.882 256.53 118.714 262.934 96.544C269.338 74.3737 292.501 61.5946 314.671 67.9985C336.842 74.4024 349.626 97.5653 343.217 119.736Z" fill="#6A3FA2"/>
<path d="M137.308 332.807C169.82 320.004 200.913 302.834 220.182 276.66C230.953 261.175 236.526 246.158 238.888 229.576C239.638 223.272 240.11 217.975 241.289 212.182C254.85 146.368 348.695 155.315 350.117 221.941C349.902 249.718 338.65 276.584 321.944 297.661C278.681 353.173 196.041 366.892 137.308 332.807Z" fill="#6A3FA2"/>
<path d="M138.072 332.506C138.072 332.501 138.067 332.501 138.067 332.501C139.327 332 140.582 331.49 141.842 330.979C141.856 330.974 141.875 330.97 141.894 330.97C140.62 331.485 139.351 332 138.072 332.506ZM299.616 320.128C307.824 313.624 315.339 306.132 321.944 297.662C315.344 306.132 307.824 313.628 299.616 320.128Z" fill="#171621"/>
<path d="M208.124 351.293C184.57 351.293 161.111 345.782 140.41 334.506C139.632 333.837 138.84 333.188 138.072 332.506C139.351 332 140.62 331.485 141.894 330.969C196.514 321.154 249.978 304.175 288.402 269.774C310.782 248.625 324.692 226.498 334.002 200.796C335.577 196.125 336.971 191.806 338.412 187.597C345.321 196.335 349.783 207.759 350.112 221.778C350.117 221.831 350.117 221.888 350.117 221.941C349.902 249.718 338.65 276.584 321.944 297.662C315.339 306.132 307.824 313.624 299.616 320.128C299.592 320.147 299.568 320.166 299.544 320.185C299.501 320.218 299.458 320.252 299.42 320.28C273.499 340.738 240.721 351.293 208.124 351.293Z" fill="#60339A"/>
<path d="M137.256 331.805C194.252 329.318 251.367 319.498 295.04 289.411C319.916 271.268 336.522 251.083 349.01 226.765C353.529 217.436 357.084 209.515 361.999 201.211C418.022 106.933 558.001 170.79 524.655 274.322C509.509 317.05 477.819 352.486 440.803 376.088C344.472 438.595 209.622 415.8 137.256 331.805Z" fill="#03AAE8"/>
</svg>
