<svg width="1235" height="1213" viewBox="0 0 1235 1213" fill="none" xmlns="http://www.w3.org/2000/svg">
<path d="M801.277 446.08L958.113 290.913C960.726 288.331 960.747 284.122 958.165 281.514C955.584 278.901 951.369 278.881 948.762 281.462L791.925 436.625C789.312 439.211 789.291 443.421 791.873 446.028C794.455 448.641 798.669 448.662 801.277 446.08Z" fill="#274E8B"/>
<path d="M993.868 255.542L1028.46 221.313C1031.07 218.726 1031.09 214.516 1028.51 211.909C1025.93 209.296 1021.72 209.275 1019.11 211.857L984.51 246.092C981.903 248.674 981.877 252.883 984.464 255.496C987.045 258.103 991.255 258.124 993.868 255.542Z" fill="#274E8B"/>
<path d="M827.523 321.431L843.169 300.908C845.392 297.984 844.833 293.811 841.909 291.587C838.99 289.363 834.817 289.923 832.593 292.846L816.948 313.37C814.724 316.288 815.284 320.462 818.208 322.686C821.126 324.915 825.299 324.35 827.523 321.431Z" fill="#274E8B"/>
<path d="M760.67 409.16L799.478 358.243C801.707 355.324 801.142 351.151 798.223 348.927C795.299 346.698 791.132 347.263 788.902 350.181L750.095 401.093C747.866 404.017 748.431 408.19 751.35 410.414C754.273 412.643 758.441 412.078 760.67 409.16Z" fill="#274E8B"/>
<path d="M778.991 197.129L792.609 169.312C794.227 166.015 792.858 162.033 789.561 160.416C786.264 158.804 782.283 160.167 780.665 163.464L767.047 191.287C765.435 194.584 766.798 198.565 770.095 200.182C773.392 201.795 777.379 200.431 778.991 197.129Z" fill="#274E8B"/>
<path d="M695.673 367.496L766.865 221.971C768.478 218.674 767.109 214.693 763.812 213.075C760.515 211.463 756.528 212.831 754.916 216.128L683.73 361.654C682.112 364.951 683.481 368.937 686.778 370.55C690.08 372.162 694.061 370.798 695.673 367.496Z" fill="#274E8B"/>
<path d="M677.182 221.566L690.184 179.478C691.267 175.973 689.302 172.246 685.793 171.162C682.283 170.079 678.561 172.044 677.478 175.553L664.476 217.637C663.393 221.147 665.357 224.869 668.867 225.952C672.377 227.041 676.099 225.071 677.182 221.566Z" fill="#274E8B"/>
<path d="M639.313 344.049L670.298 243.884C671.381 240.374 669.416 236.652 665.907 235.563C662.397 234.48 658.675 236.445 657.592 239.954L626.607 340.119C625.523 343.629 627.488 347.351 630.998 348.435C634.502 349.523 638.229 347.558 639.313 344.049Z" fill="#274E8B"/>
<path d="M556.317 326.465L574.855 106.622C575.166 102.962 572.45 99.7478 568.79 99.4367C565.13 99.1309 561.916 101.847 561.605 105.507L543.067 325.345C542.756 329.005 545.472 332.219 549.132 332.53C552.792 332.836 556.011 330.12 556.317 326.465Z" fill="#274E8B"/>
<path d="M579.08 56.5184L583.171 8.01171C583.476 4.35181 580.76 1.1378 577.105 0.826758C573.445 0.515718 570.226 3.23211 569.92 6.89201L565.83 55.4038C565.519 59.0637 568.235 62.2778 571.895 62.5889C575.555 62.8947 578.769 60.1783 579.08 56.5184Z" fill="#274E8B"/>
<path d="M508.184 206.808L507.048 168.042C506.945 164.371 503.881 161.484 500.211 161.593C496.541 161.697 493.648 164.76 493.757 168.431L494.892 207.197C495.001 210.867 498.059 213.754 501.735 213.645C505.405 213.542 508.293 210.478 508.184 206.808Z" fill="#274E8B"/>
<path d="M511.662 324.479L508.671 222.893C508.562 219.223 505.498 216.336 501.828 216.445C498.158 216.553 495.27 219.612 495.379 223.287L498.37 324.868C498.479 328.538 501.543 331.426 505.213 331.322C508.884 331.213 511.771 328.149 511.662 324.479Z" fill="#274E8B"/>
<path d="M402.824 135.346L396.111 102.801C395.369 99.2086 391.855 96.8914 388.257 97.6327C384.659 98.374 382.347 101.894 383.089 105.492L389.802 138.032C390.543 141.629 394.063 143.941 397.656 143.2C401.253 142.459 403.571 138.939 402.824 135.346Z" fill="#274E8B"/>
<path d="M443.347 331.317L406.613 153.703C405.867 150.105 402.352 147.793 398.755 148.539C395.157 149.281 392.845 152.801 393.591 156.398L430.325 334.007C431.066 337.605 434.586 339.917 438.179 339.176C441.777 338.429 444.089 334.909 443.347 331.317Z" fill="#274E8B"/>
<path d="M348.034 197.777L337.687 167.103C336.515 163.625 332.741 161.753 329.263 162.93C325.785 164.102 323.913 167.876 325.085 171.354L335.437 202.028C336.609 205.506 340.383 207.378 343.861 206.201C347.34 205.029 349.211 201.256 348.034 197.777Z" fill="#274E8B"/>
<path d="M397.029 343.033L354.769 217.741C353.597 214.262 349.823 212.391 346.345 213.562C342.866 214.739 340.995 218.508 342.166 221.992L384.431 347.284C385.603 350.762 389.377 352.628 392.855 351.457C396.334 350.285 398.205 346.511 397.029 343.033Z" fill="#274E8B"/>
<path d="M333.908 369.378L218.979 158.384C217.221 155.159 213.183 153.967 209.959 155.724C206.734 157.482 205.542 161.52 207.299 164.745L322.228 375.739C323.986 378.963 328.024 380.155 331.249 378.398C334.473 376.641 335.66 372.602 333.908 369.378Z" fill="#274E8B"/>
<path d="M204.241 131.515L180.949 88.7835C179.186 85.559 175.148 84.3718 171.924 86.1292C168.699 87.8866 167.512 91.925 169.269 95.1494L192.561 137.881C194.318 141.106 198.357 142.293 201.581 140.535C204.806 138.778 205.998 134.74 204.241 131.515Z" fill="#274E8B"/>
<path d="M204.35 296.149L184.433 269.933C182.209 267.009 178.041 266.439 175.117 268.663C172.193 270.887 171.623 275.055 173.842 277.979L193.759 304.194C195.983 307.118 200.151 307.688 203.074 305.464C205.998 303.246 206.568 299.073 204.35 296.149Z" fill="#274E8B"/>
<path d="M283.701 400.674L217.004 312.81C214.78 309.886 210.612 309.316 207.683 311.535C204.759 313.753 204.189 317.927 206.408 320.85L273.105 408.719C275.329 411.643 279.497 412.213 282.426 409.994C285.349 407.77 285.92 403.603 283.701 400.674Z" fill="#274E8B"/>
<path d="M93.2564 295.521L81.6753 284.205C79.0471 281.639 74.8376 281.69 72.2716 284.319C69.7055 286.942 69.7522 291.151 72.3805 293.717L83.9615 305.034C86.5898 307.6 90.7992 307.548 93.3653 304.925C95.9314 302.297 95.8847 298.087 93.2564 295.521Z" fill="#274E8B"/>
<path d="M239.481 438.408L105.662 307.636C103.033 305.07 98.824 305.117 96.2579 307.745C93.6918 310.374 93.7385 314.583 96.3668 317.149L230.186 447.915C232.815 450.482 237.024 450.435 239.59 447.807C242.156 445.184 242.11 440.974 239.481 438.408Z" fill="#274E8B"/>
<path d="M88.2487 392.348L58.9228 370.601C55.9731 368.414 51.8051 369.031 49.6175 371.98C47.4298 374.93 48.052 379.093 51.0016 381.28L80.3275 403.032C83.2772 405.22 87.44 404.598 89.6276 401.648C91.8153 398.699 91.1984 394.536 88.2487 392.348Z" fill="#274E8B"/>
<path d="M204.21 478.387L107.222 406.438C104.272 404.251 100.11 404.867 97.9221 407.817C95.7345 410.767 96.3513 414.93 99.301 417.117L196.288 489.066C199.238 491.254 203.401 490.637 205.589 487.687C207.776 484.737 207.159 480.575 204.21 478.387Z" fill="#274E8B"/>
<path d="M924.806 422.379L945.501 406.967C948.445 404.774 949.057 400.606 946.864 397.662C944.671 394.717 940.503 394.106 937.559 396.304L916.864 411.716C913.92 413.908 913.308 418.076 915.501 421.021C917.694 423.965 921.862 424.577 924.806 422.379Z" fill="#274E8B"/>
<path d="M836.388 488.309L887.71 450.046C890.654 447.853 891.261 443.685 889.068 440.741C886.875 437.796 882.707 437.19 879.763 439.383L828.441 477.646C825.497 479.844 824.885 484.007 827.083 486.951C829.276 489.896 833.444 490.502 836.388 488.309Z" fill="#274E8B"/>
<path d="M1046.36 473.581L1074.31 460.274C1077.63 458.693 1079.04 454.727 1077.46 451.409C1075.88 448.097 1071.91 446.687 1068.59 448.263L1040.64 461.575C1037.33 463.151 1035.91 467.122 1037.5 470.435C1039.07 473.752 1043.04 475.162 1046.36 473.581Z" fill="#274E8B"/>
<path d="M875.113 555.11L1021.4 485.474C1024.71 483.898 1026.12 479.927 1024.55 476.614C1022.97 473.296 1019 471.886 1015.68 473.467L869.395 543.099C866.082 544.68 864.672 548.646 866.253 551.964C867.829 555.276 871.795 556.686 875.113 555.11Z" fill="#274E8B"/>
<path d="M1018.94 575.877L1061.14 563.301C1064.65 562.254 1066.66 558.552 1065.6 555.032C1064.56 551.512 1060.86 549.511 1057.34 550.559L1015.14 563.135C1011.62 564.182 1009.62 567.889 1010.67 571.403C1011.72 574.923 1015.42 576.93 1018.94 575.877Z" fill="#274E8B"/>
<path d="M896.03 612.429L996.522 582.533C1000.04 581.486 1002.05 577.78 1001 574.26C999.954 570.74 996.247 568.739 992.727 569.786L892.24 599.682C888.72 600.729 886.714 604.436 887.761 607.956C888.808 611.476 892.51 613.477 896.03 612.429Z" fill="#274E8B"/>
<path d="M909.923 696.136L1129.94 679.941C1133.6 679.671 1136.35 676.483 1136.08 672.818C1135.81 669.158 1132.62 666.405 1128.96 666.675L908.943 682.87C905.283 683.139 902.531 686.328 902.8 689.993C903.07 693.653 906.258 696.405 909.923 696.136Z" fill="#274E8B"/>
<path d="M1180.1 676.245L1228.64 672.683C1232.3 672.414 1235.05 669.231 1234.78 665.566C1234.51 661.906 1231.33 659.153 1227.66 659.423L1179.12 662.979C1175.46 663.248 1172.71 666.436 1172.98 670.096C1173.24 673.761 1176.43 676.514 1180.1 676.245Z" fill="#274E8B"/>
<path d="M1027.55 745.55L1066.29 747.1C1069.96 747.245 1073.05 744.388 1073.2 740.718C1073.34 737.053 1070.49 733.958 1066.82 733.808L1028.08 732.263C1024.41 732.113 1021.32 734.969 1021.17 738.639C1021.03 742.31 1023.88 745.404 1027.55 745.55Z" fill="#274E8B"/>
<path d="M909.918 740.832L1011.47 744.902C1015.14 745.047 1018.23 742.19 1018.38 738.525C1018.53 734.855 1015.67 731.76 1012 731.615L910.452 727.54C906.781 727.395 903.687 730.252 903.542 733.922C903.391 737.592 906.248 740.682 909.918 740.832Z" fill="#274E8B"/>
<path d="M1095.6 851.381L1128.05 858.457C1131.63 859.24 1135.17 856.964 1135.96 853.377C1136.74 849.79 1134.47 846.249 1130.88 845.466L1098.44 838.385C1094.85 837.602 1091.31 839.878 1090.52 843.465C1089.74 847.052 1092.02 850.598 1095.6 851.381Z" fill="#274E8B"/>
<path d="M900.047 808.774L1077.27 847.389C1080.85 848.172 1084.4 845.896 1085.18 842.309C1085.96 838.722 1083.69 835.181 1080.1 834.398L902.883 795.783C899.291 795 895.75 797.276 894.967 800.863C894.184 804.45 896.46 807.991 900.047 808.774Z" fill="#274E8B"/>
<path d="M1031.02 905.056L1061.59 915.735C1065.05 916.948 1068.84 915.123 1070.06 911.655C1071.27 908.187 1069.44 904.393 1065.97 903.185L1035.41 892.5C1031.94 891.293 1028.14 893.117 1026.94 896.585C1025.72 900.054 1027.55 903.843 1031.02 905.056Z" fill="#274E8B"/>
<path d="M886.305 854.522L1011.14 898.109C1014.6 899.323 1018.39 897.493 1019.61 894.025C1020.81 890.556 1018.98 886.767 1015.52 885.554L890.685 841.967C887.222 840.759 883.427 842.584 882.22 846.052C881.007 849.52 882.837 853.309 886.305 854.522Z" fill="#274E8B"/>
<path d="M857.176 916.409L1066.94 1033.6C1070.14 1035.39 1074.19 1034.24 1075.98 1031.03C1077.78 1027.83 1076.62 1023.78 1073.42 1021.99L863.661 904.802C860.457 903.008 856.403 904.154 854.615 907.363C852.821 910.567 853.972 914.621 857.176 916.409Z" fill="#274E8B"/>
<path d="M1093.65 1048.61L1136.13 1072.35C1139.34 1074.15 1143.38 1073 1145.18 1069.79C1146.97 1066.59 1145.82 1062.54 1142.62 1060.75L1100.14 1037C1096.94 1035.21 1092.89 1036.36 1091.09 1039.56C1089.3 1042.77 1090.45 1046.82 1093.65 1048.61Z" fill="#274E8B"/>
<path d="M927.352 1045.66L953.349 1065.83C956.252 1068.08 960.431 1067.55 962.681 1064.65C964.93 1061.75 964.402 1057.57 961.504 1055.32L935.501 1035.15C932.598 1032.9 928.425 1033.43 926.17 1036.33C923.92 1039.23 924.449 1043.41 927.352 1045.66Z" fill="#274E8B"/>
<path d="M823.677 965.185L910.835 1032.83C913.733 1035.08 917.912 1034.56 920.167 1031.65C922.417 1028.76 921.888 1024.58 918.99 1022.33L831.831 954.682C828.934 952.427 824.755 952.956 822.505 955.859C820.25 958.757 820.779 962.935 823.677 965.185Z" fill="#274E8B"/>
<path d="M925.335 1155.42L936.522 1167.11C939.062 1169.77 943.272 1169.86 945.926 1167.32C948.58 1164.78 948.673 1160.57 946.133 1157.92L934.946 1146.23C932.406 1143.57 928.197 1143.48 925.542 1146.01C922.888 1148.55 922.795 1152.76 925.335 1155.42Z" fill="#274E8B"/>
<path d="M784.019 1007.67L913.365 1142.9C915.905 1145.56 920.115 1145.65 922.769 1143.11C925.423 1140.57 925.517 1136.36 922.976 1133.71L793.63 998.482C791.09 995.828 786.881 995.735 784.227 998.27C781.578 1000.81 781.479 1005.02 784.019 1007.67Z" fill="#274E8B"/>
<path d="M827.316 1158.01L848.747 1187.56C850.903 1190.53 855.061 1191.19 858.036 1189.04C861.007 1186.88 861.67 1182.72 859.514 1179.75L838.078 1150.21C835.921 1147.23 831.764 1146.57 828.793 1148.73C825.818 1150.89 825.159 1155.04 827.316 1158.01Z" fill="#274E8B"/>
<path d="M742.506 1041.13L813.423 1138.9C815.579 1141.87 819.737 1142.53 822.707 1140.38C825.683 1138.22 826.341 1134.06 824.19 1131.09L753.273 1033.32C751.116 1030.35 746.959 1029.69 743.983 1031.85C741.013 1034 740.349 1038.16 742.506 1041.13Z" fill="#274E8B"/>
<path d="M115.937 719.749C115.937 941.842 295.972 1121.88 518.065 1121.88C740.152 1121.88 920.187 941.842 920.187 719.749C920.187 497.666 740.152 317.626 518.065 317.626C295.972 317.626 115.937 497.666 115.937 719.749Z" fill="#F08057"/>
<path d="M518.065 1031.7C345.78 1031.7 206.123 892.034 206.123 719.749C206.123 547.469 345.78 407.812 518.065 407.812C690.35 407.812 830.001 547.469 830.001 719.749C830.001 892.034 690.35 1031.7 518.065 1031.7ZM518.065 534.203C415.587 534.203 332.514 617.277 332.514 719.749C332.514 822.236 415.587 905.3 518.065 905.3C620.537 905.3 703.615 822.236 703.615 719.749C703.615 617.277 620.537 534.203 518.065 534.203Z" fill="#F29950"/>
<path d="M518.065 905.3C415.587 905.3 332.514 822.236 332.514 719.749C332.514 617.277 415.587 534.203 518.065 534.203C620.537 534.203 703.615 617.277 703.615 719.749C703.615 822.236 620.537 905.3 518.065 905.3Z" fill="#F5A74C"/>
<path d="M476.048 689.645C476.048 689.645 511.984 720.438 580.869 720.438C648.058 720.438 740.712 678.785 767.472 579.003C794.242 479.216 743.263 355.951 597.769 331.773C437.666 305.164 197.051 360.306 128.565 626.919C62.5206 883.957 267.973 1094.89 455.442 1118.58C658.204 1144.19 844.107 1032.66 901.971 830.676C901.971 830.676 875.605 887.441 804.366 877.99C746.078 870.266 723.133 813.605 723.133 813.605C723.133 813.605 660.583 883.47 560.122 868.504C459.641 853.532 374.084 763.507 395.307 639.734C415.214 523.628 513.036 500.922 555.638 544.566C598.214 588.215 585.13 630.195 571.817 653.145C558.489 676.099 521.149 702.351 476.048 689.645Z" fill="#19A9AE"/>
<path d="M476.048 689.645L473.887 692.17C474.255 692.496 510.952 723.761 580.869 723.766C615.14 723.756 655.648 713.186 691.153 689.92C726.643 666.67 757.088 630.589 770.681 579.864C775.284 562.71 777.627 544.877 777.627 526.966C777.627 482.964 763.491 438.429 733.942 402.322C704.409 366.21 659.458 338.637 598.313 328.492C574.772 324.578 549.531 322.421 523.352 322.421C446.717 322.426 362.031 340.897 289.004 388.144C215.982 435.375 154.759 511.492 125.345 626.095C116.642 659.962 112.608 693.061 112.608 725.057C112.608 831.433 157.149 925.46 222.146 995.429C287.154 1065.4 372.622 1111.45 455.027 1121.88C474.405 1124.33 493.632 1125.53 512.616 1125.53C693.673 1125.59 852.433 1015.83 905.169 831.593C905.646 829.924 904.76 828.167 903.132 827.56C901.509 826.954 899.69 827.706 898.959 829.276L898.912 829.37C898.352 830.536 892.474 842.236 879.84 853.522C867.176 864.802 847.922 875.709 820.001 875.73C815.196 875.73 810.136 875.404 804.802 874.699C776.694 870.971 757.109 855.471 744.413 840.733C738.079 833.377 733.501 826.228 730.526 820.951C729.038 818.307 727.949 816.135 727.239 814.631C726.881 813.885 726.622 813.299 726.451 812.916L726.264 812.48L726.218 812.361C725.787 811.298 724.834 810.531 723.703 810.334C722.578 810.137 721.423 810.536 720.655 811.391L720.536 811.521C719.157 813.024 705.995 827.021 683.216 840.588C660.433 854.154 628.09 867.28 588.189 867.28C579.365 867.28 570.164 866.637 560.61 865.217C516.333 858.623 474.986 837.192 444.758 804.647C414.53 772.092 395.38 728.484 395.37 677.219C395.37 665.312 396.406 652.989 398.584 640.294C405.359 600.791 421.217 572.549 440.605 554.167C459.999 535.784 482.964 527.236 504.182 527.236C523.197 527.241 540.76 534.089 553.259 546.888C574.622 568.837 581.346 589.843 581.377 608.199C581.382 625.55 575.218 640.656 568.94 651.475C563.813 660.325 554.674 669.956 542.735 677.271C530.786 684.596 516.074 689.64 499.656 689.64C492.404 689.64 484.814 688.66 476.95 686.447C475.452 686.022 473.85 686.701 473.119 688.075C472.383 689.448 472.705 691.154 473.887 692.17L476.048 689.645L475.146 692.844C483.591 695.223 491.802 696.291 499.656 696.291C517.448 696.291 533.357 690.822 546.209 682.942C559.065 675.042 568.904 664.767 574.689 654.814C581.351 643.326 588.017 627.142 588.028 608.199C588.054 588.158 580.423 565.172 558.018 542.249C544.15 528.039 524.783 520.58 504.182 520.585C481.18 520.585 456.582 529.859 436.028 549.34C415.473 568.822 398.998 598.49 392.031 639.174C389.792 652.227 388.724 664.928 388.724 677.219C388.713 730.163 408.584 775.492 439.89 809.173C471.191 842.864 513.881 864.973 559.63 871.795C569.516 873.268 579.044 873.931 588.189 873.931C630.91 873.931 665.249 859.421 688.867 844.942C712.49 830.458 725.456 815.99 725.611 815.824L723.133 813.605L720.054 814.854C720.142 815.067 726 829.525 739.369 845.072C752.718 860.598 773.75 877.291 803.931 881.287C809.54 882.034 814.895 882.376 820.001 882.376C850.68 882.397 872.075 869.826 885.558 857.306C899.073 844.776 904.863 832.33 904.988 832.081L901.971 830.676L898.777 829.764C846.766 1011.16 690.992 1118.83 512.616 1118.88C493.912 1118.88 474.965 1117.7 455.862 1115.28C375.308 1105.12 291.021 1059.83 227.014 990.903C162.997 921.971 119.259 829.535 119.259 725.057C119.259 693.621 123.215 661.087 131.784 627.748C160.866 514.623 220.928 440.15 292.618 393.727C364.307 347.325 447.764 329.067 523.352 329.072C549.163 329.072 574.052 331.198 597.219 335.049C656.975 344.992 700.287 371.716 728.799 406.532C757.296 441.352 770.976 484.369 770.976 526.966C770.976 544.302 768.711 561.554 764.258 578.143C751.09 627.199 721.832 661.838 687.509 684.358C653.196 706.866 613.787 717.126 580.869 717.115C546.924 717.115 521.191 709.536 503.959 701.994C495.343 698.225 488.858 694.466 484.55 691.667C482.399 690.267 480.786 689.111 479.729 688.313C479.2 687.914 478.806 687.603 478.552 687.401L478.277 687.178L478.21 687.121L476.048 689.645Z" fill="#274E8B"/>
<path d="M508.941 390.663C614.819 420.041 673.683 502.56 655.669 599.356C641.314 676.535 548.023 717.292 476.048 688.956C476.048 688.956 511.984 719.749 580.869 719.749C648.058 719.749 740.712 678.095 767.472 578.314C794.242 478.527 743.465 354.878 598.878 325.749C466.022 298.984 306.594 338.212 202.929 470.787C295.655 385.474 423.094 366.832 508.941 390.663Z" fill="#1CB4CA"/>
<path d="M508.94 390.663L508.049 393.867C554.098 406.646 590.977 429.538 616.327 459.165C641.677 488.796 655.549 525.141 655.56 565.209C655.56 576.131 654.528 587.329 652.402 598.744C646.944 628.059 629.764 651.968 606.508 668.65C583.263 685.322 553.969 694.658 524.684 694.653C508.536 694.653 492.404 691.823 477.266 685.861C475.753 685.265 474.037 685.851 473.202 687.24C472.362 688.634 472.653 690.423 473.886 691.48C474.254 691.807 510.952 723.077 580.868 723.077C615.14 723.067 655.648 712.496 691.153 689.231C726.643 665.98 757.088 629.9 770.681 579.174C775.3 561.969 777.643 544.073 777.648 526.064C777.648 481.985 763.579 437.21 734.227 400.373C704.88 363.525 660.251 334.707 599.536 322.489C573.424 317.227 546.302 314.5 518.78 314.495C405.11 314.484 284.447 361.125 200.306 468.739C199.238 470.108 199.399 472.052 200.674 473.229C201.949 474.406 203.898 474.411 205.179 473.234C272.975 410.839 359.667 384.432 434.545 384.437C460.994 384.437 485.96 387.734 508.049 393.867L508.94 390.663L509.827 387.46C487.085 381.145 461.548 377.791 434.545 377.791C358.148 377.797 269.911 404.66 200.674 468.34L202.929 470.787L205.547 472.835C288.325 366.972 406.878 321.161 518.78 321.146C545.861 321.146 572.548 323.836 598.224 329.005C657.576 340.975 700.66 368.937 729.022 404.515C757.378 440.098 770.997 483.384 770.997 526.064C770.997 543.493 768.726 560.818 764.258 577.453C751.09 626.509 721.832 661.149 687.508 683.673C653.196 706.177 613.787 716.436 580.868 716.426C546.924 716.426 521.19 708.847 503.959 701.309C495.343 697.541 488.858 693.777 484.55 690.978C482.398 689.578 480.786 688.422 479.729 687.624C479.2 687.224 478.806 686.918 478.552 686.711L478.277 686.488L478.21 686.431L476.048 688.956L474.83 692.051C490.802 698.334 507.764 701.299 524.684 701.299C555.374 701.294 585.944 691.569 610.386 674.057C634.813 656.551 653.144 631.154 658.94 599.962C661.138 588.158 662.211 576.551 662.211 565.209C662.221 523.597 647.711 485.593 621.381 454.841C595.052 424.074 556.96 400.534 509.827 387.46L508.94 390.663Z" fill="#274E8B"/>
<path d="M901.971 829.992C901.971 829.992 875.605 886.751 804.366 877.306C746.078 869.577 723.133 812.921 723.133 812.921C723.133 812.921 660.583 882.78 560.122 867.814C459.641 852.843 374.084 762.823 395.307 639.049C415.214 522.943 513.036 500.232 555.638 543.882C563.404 551.865 569.313 559.796 573.72 567.557V567.547C554.581 527.251 482.331 477.112 382.778 516.168C275.599 558.22 185.62 707.965 273.121 886.414C346.479 1036.01 561.973 1084.58 685.005 1084.71C787.104 1038.53 867.425 950.535 901.971 829.992Z" fill="#188A8D"/>
<path d="M901.971 829.992L898.959 828.587L898.912 828.68C898.352 829.847 892.473 841.552 879.84 852.832C867.176 864.118 847.922 875.02 820.001 875.041C815.196 875.041 810.136 874.714 804.802 874.009C776.694 870.282 757.109 854.782 744.413 840.043C738.078 832.687 733.501 825.544 730.525 820.261C729.038 817.617 727.949 815.445 727.239 813.947C726.881 813.195 726.622 812.615 726.451 812.226L726.264 811.791L726.217 811.671C725.787 810.609 724.833 809.841 723.703 809.644C722.578 809.448 721.422 809.847 720.655 810.702L720.536 810.832C719.157 812.34 705.995 826.337 683.216 839.898C660.433 853.465 628.09 866.596 588.188 866.591C579.365 866.591 570.164 865.953 560.609 864.527C516.333 857.933 474.985 836.503 444.757 803.958C414.53 771.402 395.38 727.794 395.369 676.535C395.369 664.627 396.406 652.305 398.584 639.609C405.359 600.107 421.217 571.86 440.605 553.477C459.998 535.095 482.963 526.546 504.182 526.546C523.196 526.551 540.76 533.399 553.258 546.204L553.253 546.199C560.837 553.995 566.576 561.704 570.827 569.2C571.574 570.507 573.113 571.155 574.57 570.771C576.021 570.387 577.043 569.065 577.043 567.557V567.547C577.043 567.059 576.929 566.562 576.721 566.121C569.241 550.398 554.332 533.648 533.305 520.709C512.279 507.78 485.099 498.719 453.197 498.724C431.352 498.719 407.313 502.969 381.564 513.073C303.348 543.783 234.541 630.553 234.515 743.808C234.515 788.395 245.205 837.042 270.134 887.881C307.355 963.739 380.351 1013.67 459.216 1044.71C538.126 1075.75 623.061 1087.96 685 1088.04L686.373 1087.75C789.327 1041.19 870.374 952.365 905.169 830.904C905.646 829.235 904.76 827.483 903.132 826.876C901.509 826.27 899.69 827.016 898.959 828.587L901.971 829.992L898.777 829.074C864.475 948.71 784.88 1035.87 683.631 1081.69L685.005 1084.71V1081.39C623.916 1081.33 539.588 1069.2 461.652 1038.52C383.674 1007.84 312.239 958.69 276.101 884.952C251.586 834.942 241.166 787.333 241.166 743.808C241.14 633.331 308.418 548.894 383.99 519.263C409.024 509.444 432.217 505.375 453.197 505.37C483.829 505.375 509.78 514.053 529.822 526.37C549.858 538.677 563.943 554.675 570.718 568.972L573.72 567.547H570.397V567.557H573.72L576.612 565.913C572.056 557.889 565.965 549.729 558.017 541.559C544.15 527.35 524.783 519.895 504.182 519.9C481.18 519.895 456.582 529.169 436.033 548.656C415.473 568.137 398.998 597.805 392.031 638.489C389.791 651.543 388.724 664.244 388.724 676.535C388.713 729.474 408.583 774.803 439.89 808.483C471.191 842.174 513.881 864.284 559.63 871.106C569.516 872.578 579.044 873.242 588.188 873.242C630.91 873.242 665.248 858.732 688.867 844.253C712.49 829.769 725.455 815.305 725.611 815.134L723.133 812.921L720.054 814.165C720.142 814.377 726 828.836 739.369 844.382C752.718 859.909 773.75 876.601 803.931 880.598C809.54 881.344 814.895 881.687 820.001 881.687C850.68 881.707 872.074 869.141 885.558 856.617C899.073 844.087 904.863 831.64 904.988 831.391L901.971 829.992Z" fill="#274E8B"/>
<path d="M680.598 945.911C680.598 945.911 652.076 1007.37 574.923 997.145C511.807 988.767 486.971 927.42 486.971 927.42C486.971 927.42 439.91 979.69 361.409 987.901C458.407 1058.84 595.871 1084.62 685.005 1084.71C734.678 1062.25 779.006 1029.73 815.616 988.549C806.917 992.577 797.218 995.683 786.285 997.145C709.121 1007.37 680.598 945.911 680.598 945.911Z" fill="#1CB4CA"/>
<path d="M680.598 945.911L677.581 944.511L677.534 944.615C676.918 945.895 670.541 958.602 656.824 970.851C643.082 983.101 622.164 994.946 591.848 994.967C586.638 994.967 581.148 994.615 575.363 993.848C544.835 989.794 523.57 972.961 509.796 956.974C502.922 948.99 497.961 941.235 494.731 935.507C493.119 932.64 491.937 930.281 491.165 928.653C490.776 927.834 490.496 927.202 490.309 926.782L490.107 926.31L490.05 926.176C489.62 925.113 488.671 924.346 487.546 924.149C486.416 923.952 485.265 924.346 484.498 925.196L484.389 925.32C481.828 928.125 435.794 976.823 361.062 984.594C359.693 984.734 358.558 985.703 358.2 987.031C357.842 988.358 358.335 989.773 359.444 990.582C457.375 1062.14 595.27 1087.91 685 1088.04L686.373 1087.75C736.466 1065.09 781.178 1032.28 818.099 990.758C819.146 989.576 819.224 987.829 818.285 986.564C817.342 985.299 815.647 984.869 814.216 985.532C805.782 989.436 796.419 992.437 785.844 993.848C780.059 994.615 774.569 994.967 769.354 994.967C738.063 994.946 716.772 982.329 703.071 969.664C696.233 963.329 691.334 956.984 688.167 952.246C686.581 949.877 685.43 947.912 684.678 946.554C684.305 945.875 684.03 945.351 683.854 944.999L683.662 944.615L683.615 944.511C683.071 943.34 681.889 942.588 680.598 942.588C679.307 942.588 678.125 943.34 677.581 944.511L680.598 945.911L677.581 947.311C677.706 947.56 683.957 961.007 698.55 974.537C713.112 988.062 736.202 1001.63 769.354 1001.61C774.869 1001.61 780.655 1001.25 786.72 1000.44C798.016 998.933 808.052 995.714 817.015 991.561L815.616 988.549L813.132 986.336C776.829 1027.17 732.884 1059.41 683.631 1081.69L685.005 1084.71V1081.39C596.478 1081.34 459.433 1055.55 363.369 985.216L361.409 987.901L361.756 991.204C441.621 982.795 489.164 929.908 489.438 929.649L486.971 927.42L483.886 928.669C483.98 928.882 490.309 944.511 504.757 961.313C519.179 978.088 541.895 996.118 574.487 1000.44C580.552 1001.25 586.338 1001.61 591.848 1001.61C625 1001.63 648.084 988.062 662.651 974.537C677.239 961.007 683.491 947.56 683.615 947.311L680.598 945.911Z" fill="#274E8B"/>
<path d="M359.144 905.647C366.261 915.984 374.1 925.746 382.539 934.973C383.783 936.326 385.883 936.419 387.241 935.18C388.594 933.941 388.687 931.837 387.448 930.484C379.195 921.469 371.554 911.946 364.623 901.878C363.581 900.365 361.513 899.981 359.999 901.023C358.485 902.06 358.102 904.133 359.144 905.647Z" fill="#274E8B"/>
<path d="M314.24 803.092C320.036 826.057 328.672 849.707 340.512 873.864C341.321 875.513 343.312 876.197 344.96 875.388C346.609 874.579 347.293 872.589 346.484 870.94C334.836 847.172 326.365 823.958 320.689 801.464C320.238 799.686 318.434 798.603 316.65 799.054C314.872 799.505 313.794 801.309 314.24 803.092Z" fill="#274E8B"/>
<path d="M336.288 604.451C316.785 640.242 304.888 682.745 304.893 729.78C304.893 739.635 305.412 749.681 306.495 759.909C306.687 761.734 308.325 763.061 310.15 762.864C311.975 762.672 313.302 761.034 313.11 759.209C312.052 749.215 311.539 739.396 311.539 729.78C311.544 683.87 323.141 642.481 342.13 607.634C343.006 606.022 342.41 604 340.798 603.124C339.185 602.243 337.169 602.839 336.288 604.451Z" fill="#274E8B"/>
<path d="M403.871 525.976C388.335 537.542 373.835 551.455 360.984 567.417C359.833 568.848 360.061 570.937 361.492 572.093C362.918 573.244 365.012 573.016 366.163 571.585C378.667 556.059 392.762 542.534 407.842 531.31C409.315 530.211 409.62 528.127 408.521 526.655C407.428 525.183 405.344 524.877 403.871 525.976Z" fill="#274E8B"/>
<path d="M382.161 634.234C401.694 571.144 442.679 538.143 482.699 529.667C484.498 529.289 485.644 527.521 485.265 525.727C484.887 523.928 483.119 522.783 481.325 523.161C438.734 532.14 395.867 567.272 375.81 632.274C375.266 634.026 376.251 635.887 378.003 636.432C379.755 636.971 381.622 635.991 382.161 634.234Z" fill="#274E8B"/>
<path d="M371.088 701.916C371.471 689.941 372.7 677.639 374.862 665.042C375.173 663.233 373.955 661.512 372.145 661.201C370.336 660.89 368.615 662.108 368.309 663.917C366.095 676.81 364.836 689.417 364.442 701.703C364.385 703.539 365.826 705.073 367.661 705.135C369.496 705.192 371.031 703.751 371.088 701.916Z" fill="#274E8B"/>
<path d="M482.839 906.627C430.144 875.155 389.693 823.74 375.997 758.872C375.618 757.079 373.851 755.928 372.057 756.306C370.258 756.685 369.112 758.453 369.491 760.246C383.586 827.047 425.292 880.023 479.433 912.334C481.009 913.278 483.052 912.759 483.99 911.184C484.933 909.608 484.415 907.565 482.839 906.627Z" fill="#274E8B"/>
<path d="M571.786 938.389C550.506 935.222 529.79 929.24 510.247 920.722C508.567 919.986 506.608 920.753 505.872 922.438C505.135 924.123 505.908 926.082 507.593 926.813C527.665 935.569 548.94 941.712 570.811 944.968C572.626 945.237 574.316 943.983 574.585 942.168C574.86 940.354 573.606 938.659 571.786 938.389Z" fill="#274E8B"/>
<path d="M115.936 719.749H109.291C109.291 945.517 292.296 1128.53 518.065 1128.53C743.828 1128.53 926.833 945.517 926.838 719.749C926.833 493.991 743.828 310.98 518.065 310.975C292.296 310.98 109.291 493.991 109.291 719.749H115.936H122.588C122.593 610.522 166.838 511.694 238.419 440.108C310.005 368.533 408.832 324.277 518.065 324.277C627.291 324.277 726.119 368.533 797.705 440.108C869.286 511.694 913.536 610.522 913.536 719.749C913.536 828.981 869.286 927.809 797.705 999.4C726.119 1070.98 627.291 1115.23 518.065 1115.24C408.832 1115.23 310.005 1070.98 238.419 999.4C166.838 927.809 122.593 828.981 122.588 719.749H115.936Z" fill="#274E8B"/>
<path d="M255.164 1031.15L276.954 1045.87C284.308 1050.84 289.066 1056.47 291.229 1062.76C293.579 1069.55 292.489 1076.3 287.958 1083.01C283.234 1090 276.961 1093.87 269.138 1094.62C261.732 1095.31 254.3 1093.13 246.843 1088.1L233.326 1078.96L225.191 1091L218.006 1086.15L255.164 1031.15ZM252.223 1082.23C257.505 1085.79 262.566 1087.29 267.406 1086.71C272.445 1086.12 276.653 1083.33 280.03 1078.33C283.266 1073.54 283.946 1068.68 282.07 1063.75C280.381 1059.33 276.831 1055.29 271.419 1051.64L257.941 1042.53L237.735 1072.44L252.223 1082.23ZM282.267 1101.33C283.874 1098.15 285.989 1095.53 288.611 1093.46C291.233 1091.39 294.119 1089.9 297.267 1089.01C303.927 1087.12 310.451 1087.79 316.838 1091.02C323.281 1094.28 327.642 1098.98 329.921 1105.14C332.229 1111.39 331.775 1117.69 328.562 1124.05C325.418 1130.27 320.447 1134.32 313.646 1136.2C307.028 1138.08 300.511 1137.39 294.096 1134.15C287.57 1130.85 283.188 1126.15 280.95 1120.05C278.657 1113.85 279.096 1107.61 282.267 1101.33ZM290.449 1104.89C289.349 1107.07 288.718 1109.29 288.554 1111.55C288.405 1113.78 288.668 1115.93 289.344 1117.99C290.807 1122.3 293.77 1125.58 298.232 1127.84C302.388 1129.94 306.593 1130.28 310.848 1128.86C315.074 1127.49 318.252 1124.7 320.38 1120.49C322.607 1116.08 322.996 1111.68 321.548 1107.27C320.113 1102.9 317.165 1099.59 312.702 1097.33C308.546 1095.23 304.334 1094.91 300.065 1096.36C295.811 1097.78 292.605 1100.62 290.449 1104.89ZM365.761 1153.12L364.941 1159.88C360.255 1161.21 354.365 1160.52 347.269 1157.82C340.494 1155.23 335.97 1151.13 333.695 1145.52C331.464 1140.05 331.673 1133.85 334.321 1126.9C336.792 1120.41 340.979 1115.79 346.882 1113.02C352.844 1110.28 359.037 1110.13 365.462 1112.58C371.244 1114.78 375.439 1117.9 378.047 1121.94L372.669 1127.36C370.304 1123.65 366.771 1120.9 362.069 1119.11C358.039 1117.58 354.194 1117.88 350.532 1120.03C347.054 1122.05 344.491 1125.22 342.844 1129.54C341.075 1134.19 340.858 1138.48 342.194 1142.44C343.591 1146.58 346.567 1149.52 351.122 1151.26C355.678 1152.99 360.557 1153.62 365.761 1153.12ZM404.632 1168.13C397.901 1171.09 391.49 1171.75 385.398 1170.1C381.145 1168.94 377.874 1166.86 375.585 1163.84C373.133 1160.58 372.435 1157.01 373.491 1153.12C375.668 1145.1 382.459 1141.19 393.864 1141.41C398.471 1141.49 403.807 1142.29 409.872 1143.81C411.025 1138.84 409.413 1135.3 405.036 1133.17C403.61 1132.46 402.234 1131.92 400.907 1131.56C399.58 1131.2 398.387 1130.95 397.329 1130.79C396.271 1130.63 395.17 1130.51 394.027 1130.43C391.522 1130.23 389.35 1130.24 387.511 1130.45L386.857 1123.38C391.652 1122.41 397.035 1122.74 403.007 1124.36C412.326 1126.89 417.657 1131.53 419 1138.27C419.439 1140.59 419.273 1143.17 418.504 1146.01L414.588 1160.44C413.753 1163.51 413.422 1165.63 413.597 1166.77C413.879 1168.95 414.972 1170.6 416.875 1171.69L414.098 1176.92C408.279 1176.05 405.123 1173.12 404.632 1168.13ZM392.434 1148.64C389.343 1148.94 387.003 1149.57 385.414 1150.53C383.834 1151.46 382.844 1152.66 382.442 1154.14C382.041 1155.62 381.946 1156.81 382.155 1157.71C382.373 1158.58 382.759 1159.36 383.313 1160.06C384.444 1161.5 385.96 1162.48 387.86 1162.99C389.76 1163.51 391.517 1163.78 393.131 1163.79C394.784 1163.79 396.349 1163.63 397.826 1163.32C400.703 1162.74 403.225 1161.74 405.391 1160.32L408.043 1150.55C400.767 1148.96 395.564 1148.33 392.434 1148.64ZM442.458 1139.15C447.866 1136.2 453.706 1135.21 459.978 1136.16C474.068 1138.29 479.941 1147.1 477.598 1162.58L473.957 1186.63L465.151 1185.3L468.707 1161.8C469.517 1156.45 469.191 1152.34 467.73 1149.47C466.108 1146.19 462.95 1144.19 458.253 1143.48C453.217 1142.72 448.812 1143.32 445.039 1145.27C443.81 1145.88 442.778 1146.64 441.944 1147.55L436.879 1181.02L428.073 1179.68L435.088 1133.34L441.809 1134.35L442.458 1139.15ZM524.354 1184.83C519.823 1188.27 514.451 1189.88 508.236 1189.66C501.521 1189.42 496.181 1187.01 492.216 1182.43C488.34 1177.98 486.523 1172.32 486.766 1165.45C487.031 1157.98 490.184 1151.93 496.227 1147.3C501.978 1142.94 508.867 1140.9 516.893 1141.18C520.048 1141.3 522.788 1141.63 525.113 1142.18L526.035 1116.13L534.936 1116.45L532.348 1189.57L525.555 1189.33L524.354 1184.83ZM524.833 1150.1C521.58 1149.23 518.58 1148.75 515.832 1148.65C513.083 1148.55 510.509 1148.85 508.108 1149.55C505.706 1150.25 503.605 1151.3 501.805 1152.7C497.913 1155.76 495.874 1159.92 495.687 1165.2C495.523 1169.82 496.605 1173.72 498.931 1176.9C501.407 1180.27 504.8 1182.03 509.11 1182.18C513.982 1182.36 518.054 1181.28 521.326 1178.96C522.353 1178.21 523.212 1177.34 523.905 1176.33L524.833 1150.1ZM543.649 1166.59C543.375 1163.04 543.822 1159.7 544.99 1156.57C546.159 1153.43 547.857 1150.67 550.085 1148.27C554.803 1143.21 560.729 1140.4 567.864 1139.85C575.061 1139.29 581.231 1141.06 586.374 1145.14C591.583 1149.28 594.463 1154.91 595.011 1162.01C595.548 1168.96 593.398 1175 588.561 1180.14C583.872 1185.17 577.945 1187.96 570.778 1188.52C563.488 1189.08 557.303 1187.33 552.226 1183.27C547.05 1179.16 544.191 1173.6 543.649 1166.59ZM552.489 1165.39C552.677 1167.82 553.288 1170.04 554.321 1172.06C555.353 1174.05 556.691 1175.75 558.335 1177.16C561.821 1180.09 566.057 1181.36 571.042 1180.97C575.684 1180.62 579.456 1178.73 582.357 1175.3C585.264 1171.95 586.535 1167.91 586.171 1163.21C585.791 1158.29 583.839 1154.32 580.314 1151.3C576.824 1148.31 572.586 1147 567.601 1147.39C562.958 1147.75 559.188 1149.65 556.289 1153.11C553.387 1156.53 552.121 1160.62 552.489 1165.39Z" fill="black"/>
</svg>
